<?xml version="1.0" encoding="UTF-8" standalone="no"?>
<!-- Created with Inkscape (http://www.inkscape.org/) -->

<svg
   xmlns:dc="http://purl.org/dc/elements/1.1/"
   xmlns:cc="http://creativecommons.org/ns#"
   xmlns:rdf="http://www.w3.org/1999/02/22-rdf-syntax-ns#"
   xmlns:svg="http://www.w3.org/2000/svg"
   xmlns="http://www.w3.org/2000/svg"
   xmlns:sodipodi="http://sodipodi.sourceforge.net/DTD/sodipodi-0.dtd"
   xmlns:inkscape="http://www.inkscape.org/namespaces/inkscape"
   width="210mm"
   height="297mm"
   id="svg2"
   version="1.1"
   inkscape:version="0.48.1 "
   sodipodi:docname="YINGGGGG.svg">
  <defs
     id="defs4" />
  <sodipodi:namedview
     id="base"
     pagecolor="#ffffff"
     bordercolor="#666666"
     borderopacity="1.0"
     inkscape:pageopacity="0.0"
     inkscape:pageshadow="2"
     inkscape:zoom="0.37"
     inkscape:cx="358.53792"
     inkscape:cy="566.52246"
     inkscape:document-units="px"
     inkscape:current-layer="layer1"
     showgrid="false"
     inkscape:window-width="1366"
     inkscape:window-height="706"
     inkscape:window-x="-8"
     inkscape:window-y="-8"
     inkscape:window-maximized="1" />
  <metadata
     id="metadata7">
    <rdf:RDF>
      <cc:Work
         rdf:about="">
        <dc:format>image/svg+xml</dc:format>
        <dc:type
           rdf:resource="http://purl.org/dc/dcmitype/StillImage" />
        <dc:title></dc:title>
      </cc:Work>
    </rdf:RDF>
  </metadata>
  <g
     inkscape:label="Capa 1"
     inkscape:groupmode="layer"
     id="layer1">
    <g
       id="g3082"
       transform="translate(-2.7027027,-45.945946)">
      <path
         transform="translate(2.0472412,52.39035)"
         d="m 722.85715,473.79074 c 0,194.87762 -157.97953,352.85715 -352.85715,352.85715 -194.87762,0 -352.857147,-157.97953 -352.857147,-352.85715 0,-194.87762 157.979527,-352.85715 352.857147,-352.85715 194.87762,0 352.85715,157.97953 352.85715,352.85715 z"
         sodipodi:ry="352.85715"
         sodipodi:rx="352.85715"
         sodipodi:cy="473.79074"
         sodipodi:cx="370"
         id="path2987"
         style="fill:#000000;fill-opacity:1;fill-rule:nonzero;stroke:none"
         sodipodi:type="arc" />


         
      <path
         d="m 314.28572,610.93359 c 0,35.50402 -9.5939,64.28572 -21.42857,64.28572 -11.83468,0 -21.42857,-28.7817 -21.42857,-64.28572 0,-35.50402 9.59389,-64.28571 21.42857,-64.28571 11.83467,0 21.42857,28.78169 21.42857,64.28571 z"
         sodipodi:ry="64.285713"
         sodipodi:rx="21.428572"
         sodipodi:cy="610.93359"
         sodipodi:cx="292.85715"
         id="path2989"
         style="fill:#000000;fill-opacity:1;fill-rule:nonzero;stroke:none"
         sodipodi:type="arc" />
      <path
         sodipodi:type="arc"
         style="fill:#000000;fill-opacity:1;fill-rule:nonzero;stroke:none"
         id="path2991"
         sodipodi:cx="370"
         sodipodi:cy="473.79074"
         sodipodi:rx="352.85715"
         sodipodi:ry="352.85715"
         d="m 722.85715,473.79074 c 0,194.87762 -157.97953,352.85715 -352.85715,352.85715 -194.87762,0 -352.857147,-157.97953 -352.857147,-352.85715 0,-194.87762 157.979527,-352.85715 352.857147,-352.85715 194.87762,0 352.85715,157.97953 352.85715,352.85715 z"
         transform="translate(2.0472412,52.39035)" />
      <path
         transform="translate(2.0472412,52.39035)"
         d="m 722.85715,473.79074 c 0,194.87762 -157.97953,352.85715 -352.85715,352.85715 -194.87762,0 -352.857147,-157.97953 -352.857147,-352.85715 0,-194.87762 157.979527,-352.85715 352.857147,-352.85715 194.87762,0 352.85715,157.97953 352.85715,352.85715 z"
         sodipodi:ry="352.85715"
         sodipodi:rx="352.85715"
         sodipodi:cy="473.79074"
         sodipodi:cx="370"
         id="path2993"
         style="fill:#000000;fill-opacity:1;fill-rule:nonzero;stroke:none"
         sodipodi:type="arc" />
      <path
         sodipodi:type="arc"
         style="fill:#000000;fill-opacity:1;fill-rule:nonzero;stroke:none"
         id="path2995"
         sodipodi:cx="370"
         sodipodi:cy="473.79074"
         sodipodi:rx="352.85715"
         sodipodi:ry="352.85715"
         d="m 722.85715,473.79074 c 0,194.87762 -157.97953,352.85715 -352.85715,352.85715 -194.87762,0 -352.857147,-157.97953 -352.857147,-352.85715 0,-194.87762 157.979527,-352.85715 352.857147,-352.85715 194.87762,0 352.85715,157.97953 352.85715,352.85715 z"
         transform="translate(2.0472412,52.39035)" />
      <path
         transform="translate(2.0472412,52.39035)"
         d="m 722.85715,473.79074 c 0,194.87762 -157.97953,352.85715 -352.85715,352.85715 -194.87762,0 -352.857147,-157.97953 -352.857147,-352.85715 0,-194.87762 157.979527,-352.85715 352.857147,-352.85715 194.87762,0 352.85715,157.97953 352.85715,352.85715 z"
         sodipodi:ry="352.85715"
         sodipodi:rx="352.85715"
         sodipodi:cy="473.79074"
         sodipodi:cx="370"
         id="path2997"
         style="fill:#000000;fill-opacity:1;fill-rule:nonzero;stroke:none"
         sodipodi:type="arc" />
      <path
         sodipodi:type="arc"
         style="fill:#6c5353;fill-opacity:1;fill-rule:nonzero;stroke:none"
         id="path3005"
         sodipodi:cx="370"
         sodipodi:cy="473.79074"
         sodipodi:rx="352.85715"
         sodipodi:ry="352.85715"
         d="m 722.85715,473.79074 c 0,194.87762 -157.97953,352.85715 -352.85715,352.85715 -194.87762,0 -352.857147,-157.97953 -352.857147,-352.85715 0,-194.87762 157.979527,-352.85715 352.857147,-352.85715 194.87762,0 352.85715,157.97953 352.85715,352.85715 z"
         transform="matrix(0.91012469,0,0,0.91012398,35.039937,94.972776)" />
      <path
         transform="matrix(1.3636364,0,0,1.3636364,-137.34643,-242.62802)"
         d="m 399.99999,682.09192 c 0,16.41928 -12.70543,29.72973 -28.37838,29.72973 -15.67294,0 -28.37838,-13.31045 -28.37838,-29.72973 0,-16.41928 12.70544,-29.72973 28.37838,-29.72973 15.67295,0 28.37838,13.31045 28.37838,29.72973 z"
         sodipodi:ry="29.729731"
         sodipodi:rx="28.378378"
         sodipodi:cy="682.09192"
         sodipodi:cx="371.62161"
         id="path3076"
         style="fill:#000000;fill-opacity:1;fill-rule:nonzero;stroke:none"
         sodipodi:type="arc" />
      <path
         inkscape:connector-curvature="0"
         style="fill:#f9f9f9;fill-opacity:1;fill-rule:nonzero;stroke:none"
         d="m 371.51707,847.28125 c 88.68147,0 160.59375,-71.91228 160.59375,-160.59375 0,-88.68147 -71.91228,-160.5625 -160.59375,-160.5625 -88.68148,0 -160.5625,-71.88104 -160.5625,-160.5625 0,-87.28533 69.6547,-158.31675 156.40625,-160.53125 C 192.03925,207.40079 50.642071,350.24088 50.642071,526.125 c 0,177.26903 143.641339,321.00435 320.874999,321.15625 z m 0,-140.28125 c -13.07074,0 -23.65625,-9.07776 -23.65625,-20.28125 0,-11.20349 10.58551,-20.3125 23.65625,-20.3125 13.07074,0 23.6875,9.10901 23.6875,20.3125 0,11.20349 -10.61676,20.28125 -23.6875,20.28125 z"
         id="path3070" />
      <path
         sodipodi:type="arc"
         style="fill:#f9f9f9;fill-opacity:1;fill-rule:nonzero;stroke:none"
         id="path3080"
         sodipodi:cx="371.62161"
         sodipodi:cy="682.09192"
         sodipodi:rx="28.378378"
         sodipodi:ry="29.729731"
         d="m 399.99999,682.09192 c 0,16.41928 -12.70543,29.72973 -28.37838,29.72973 -15.67294,0 -28.37838,-13.31045 -28.37838,-29.72973 0,-16.41928 12.70544,-29.72973 28.37838,-29.72973 15.67295,0 28.37838,13.31045 28.37838,29.72973 z"
         transform="matrix(1.3636364,0,0,1.3636364,-131.94102,-566.95234)" />
      <path
         id="path3049"
         d="m 372.0625,205.03125 c -88.68147,0 -160.59375,71.91228 -160.59375,160.59375 0,88.68147 71.91228,160.5625 160.59375,160.5625 88.68148,0 160.5625,71.88104 160.5625,160.5625 0,87.28533 -69.6547,158.31675 -156.40625,160.53125 175.32157,-2.36954 316.71875,-145.20963 316.71875,-321.09375 0,-177.26903 -143.64134,-321.00435 -320.875,-321.15625 z m 0,140.28125 c 13.07074,0 23.65625,9.07776 23.65625,20.28125 0,11.20349 -10.58551,20.3125 -23.65625,20.3125 -13.07074,0 -23.6875,-9.10901 -23.6875,-20.3125 0,-11.20349 10.61676,-20.28125 23.6875,-20.28125 z"
         style="fill:#000000;fill-opacity:1;fill-rule:nonzero;stroke:none"
         inkscape:connector-curvature="0" />
    </g>
  </g>
</svg>
